<svg width="18" height="18" viewBox="0 0 18 18" fill="none" xmlns="http://www.w3.org/2000/svg">
<path d="M17.7307 11.1784C16.5285 16.0004 11.6446 18.935 6.82201 17.7325C2.00144 16.5304 -0.933141 11.6462 0.269536 6.82454C1.47116 2.002 6.35508 -0.932809 11.1762 0.269341C15.9984 1.47149 18.9328 6.35625 17.7305 11.1785L17.7306 11.1784H17.7307Z" fill="#F7931A"/>
<path d="M12.969 7.71863C13.1482 6.52079 12.2362 5.87691 10.9892 5.44738L11.3938 3.8248L10.406 3.57869L10.0122 5.15854C9.75256 5.09378 9.4859 5.03276 9.22087 4.97226L9.61754 3.38198L8.63044 3.13586L8.22568 4.75791C8.0108 4.70899 7.79975 4.66064 7.59499 4.60969L7.59614 4.60459L6.23406 4.26445L5.97132 5.31939C5.97132 5.31939 6.70412 5.48737 6.68867 5.49771C7.08864 5.59753 7.16097 5.8623 7.14896 6.07216L6.68815 7.92066C6.71569 7.92766 6.75141 7.93778 6.79083 7.95361C6.75788 7.94543 6.72281 7.9365 6.68643 7.92779L6.04052 10.5173C5.99164 10.6388 5.86757 10.8211 5.58793 10.7519C5.59783 10.7662 4.87005 10.5727 4.87005 10.5727L4.37967 11.7034L5.66502 12.0238C5.90413 12.0837 6.13846 12.1465 6.36922 12.2055L5.96049 13.8467L6.94706 14.0928L7.35183 12.469C7.62135 12.5422 7.8829 12.6097 8.13896 12.6733L7.73556 14.2894L8.72332 14.5355L9.132 12.8974C10.8163 13.2162 12.0827 13.0877 12.6157 11.5642C13.0453 10.3377 12.5944 9.63026 11.7083 9.16892C12.3537 9.02008 12.8398 8.59561 12.9694 7.71876L12.9691 7.71854L12.969 7.71863ZM10.7123 10.8831C10.4071 12.1096 8.342 11.4466 7.67247 11.2803L8.21485 9.10605C8.88434 9.27319 11.0314 9.60395 10.7124 10.8831H10.7123ZM11.0178 7.70086C10.7394 8.81651 9.02056 8.24971 8.46299 8.11072L8.95474 6.13878C9.5123 6.27776 11.3079 6.53716 11.0179 7.70086H11.0178Z" fill="white"/>
</svg>
