<svg width="22" height="10" viewBox="0 0 22 10" fill="none" xmlns="http://www.w3.org/2000/svg">
<path fill-rule="evenodd" clip-rule="evenodd" d="M22 5C22 5.6679 21.8663 6.32192 21.6137 6.92642C21.3648 7.52213 21.0006 8.06975 20.5352 8.53516C19.5975 9.47284 18.3261 10 17 10C15.4589 10 14.1861 9.37684 13.1064 8.54102C12.0616 7.73209 11.1335 6.67137 10.2831 5.69937L10.2471 5.6582C9.35745 4.64149 8.5467 3.72058 7.66895 3.04102C6.81108 2.37686 5.95884 2 5 2C4.48738 2 3.98838 2.13129 3.54778 2.37516C3.30451 2.50981 3.07904 2.67877 2.87891 2.87891C2.3163 3.44151 2 4.20435 2 5L2.01465 5.29688C2.08291 5.98351 2.38671 6.6289 2.87891 7.12109C3.44152 7.6837 4.20435 8 5 8C5.95884 8 6.81108 7.62314 7.66895 6.95898C7.93256 6.75489 8.19001 6.52894 8.44534 6.28513C8.74453 5.99944 9.22271 6.00606 9.49512 6.31738L9.55325 6.38383L9.64468 6.48833C9.6611 6.50709 9.67758 6.52592 9.69412 6.5448C10.0411 6.94095 10.034 7.5428 9.64706 7.90009C9.4027 8.12573 9.15176 8.34111 8.89355 8.54102C7.81394 9.37684 6.54113 10 5 10C3.67392 10 2.40253 9.47284 1.46484 8.53516C0.58579 7.6561 0.0671897 6.48382 0.00585938 5.24805L0.00113595 5.04809L0 5C0 3.67392 0.527162 2.40253 1.46484 1.46484C1.93697 0.992718 2.4937 0.624666 3.09941 0.375575C3.69669 0.12995 4.3416 0 5 0C6.54113 0 7.81394 0.623163 8.89355 1.45898C9.93841 2.26791 10.8665 3.32863 11.7169 4.30063L11.7529 4.3418C12.6426 5.35851 13.4533 6.27942 14.3311 6.95898C15.1889 7.62314 16.0412 8 17 8L17.2969 7.98535C17.9835 7.91709 18.6289 7.61329 19.1211 7.12109C19.4835 6.75864 19.7438 6.31308 19.8831 5.82918C19.96 5.56197 20 5.28306 20 5C20 4.20435 19.6837 3.44152 19.1211 2.87891C18.6289 2.38671 17.9835 2.08291 17.2969 2.01465L17 2C16.0412 2 15.1889 2.37686 14.3311 3.04102C14.0673 3.2452 13.8097 3.4712 13.5541 3.71505C13.255 4.00046 12.7771 3.99376 12.5049 3.68262L12.4468 3.61627C12.4003 3.56305 12.3533 3.50929 12.3058 3.45506C11.9587 3.05882 11.9659 2.45682 12.3531 2.09957C12.5974 1.87408 12.8483 1.65882 13.1064 1.45898C14.1861 0.623163 15.4589 0 17 0C18.3261 0 19.5975 0.527162 20.5352 1.46484C21.4728 2.40252 22 3.67392 22 5Z" fill="#838792"/>
</svg>
