<svg width="10" height="10" viewBox="0 0 10 10" fill="none" xmlns="http://www.w3.org/2000/svg">
<path d="M1 9L9 1M2 2H2.01067V2.00933H2V2ZM2.5 2C2.5 2.13261 2.44732 2.25979 2.35355 2.35355C2.25979 2.44732 2.13261 2.5 2 2.5C1.86739 2.5 1.74022 2.44732 1.64645 2.35355C1.55268 2.25979 1.5 2.13261 1.5 2C1.5 1.86739 1.55268 1.74021 1.64645 1.64645C1.74022 1.55268 1.86739 1.5 2 1.5C2.13261 1.5 2.25979 1.55268 2.35355 1.64645C2.44732 1.74021 2.5 1.86739 2.5 2ZM8 8H8.01067V8.01067H8V8ZM8.5 8C8.5 8.13261 8.44732 8.25979 8.35355 8.35355C8.25979 8.44732 8.13261 8.5 8 8.5C7.86739 8.5 7.74022 8.44732 7.64645 8.35355C7.55268 8.25979 7.5 8.13261 7.5 8C7.5 7.86739 7.55268 7.74021 7.64645 7.64645C7.74022 7.55268 7.86739 7.5 8 7.5C8.13261 7.5 8.25979 7.55268 8.35355 7.64645C8.44732 7.74021 8.5 7.86739 8.5 8Z" stroke="#92AAB7" stroke-width="2" stroke-linecap="round" stroke-linejoin="round"/>
</svg>
